<svg height="512pt" viewBox="0 0 512.001 512" width="512pt" xmlns="http://www.w3.org/2000/svg"><path d="m15.453125 133.921875h481.09375v252.394531h-481.09375zm0 0" fill="#4380a0"/><path d="m15.453125 386.316406h481.09375v125.683594h-481.09375zm0 0" fill="#ff5622"/><path d="m30.90625 512h-26.90625c-2.210938 0-4-1.792969-4-4v-379.226562c0-8.535157 6.917969-15.453126 15.453125-15.453126s15.453125 6.917969 15.453125 15.453126zm0 0" fill="#abbfcf"/><path d="m508 512h-26.90625v-383.226562c0-8.535157 6.917969-15.453126 15.453125-15.453126s15.453125 6.917969 15.453125 15.453126v379.226562c0 2.207031-1.789062 4-4 4zm0 0" fill="#8c9fb0"/><path d="m450.1875 133.921875h30.90625v252.394531h-30.90625zm0 0" fill="#3b7191"/><path d="m450.1875 386.316406h30.90625v125.683594h-30.90625zm0 0" fill="#e8491d"/><path d="m283.191406 436.960938c-2.03125-3.605469-6.605468-4.882813-10.214844-2.847657-3.609374 2.03125-4.882812 6.605469-2.851562 10.214844 1.355469 2.398437 2.066406 5.136719 2.066406 7.921875 0 8.929688-7.261718 16.191406-16.191406 16.191406s-16.195312-7.265625-16.195312-16.191406c0-2.785156.714843-5.523438 2.066406-7.921875 2.035156-3.605469.761718-8.183594-2.847656-10.214844-3.609376-2.035156-8.183594-.757812-10.21875 2.847657-2.617188 4.644531-4 9.929687-4 15.289062 0 17.199219 13.992187 31.191406 31.191406 31.191406 17.203125 0 31.195312-13.992187 31.195312-31.191406.003906-5.359375-1.378906-10.644531-4-15.289062zm0 0" fill="#bdf9ff"/><path d="m256 455.628906c4.144531 0 7.5-3.355468 7.5-7.5v-25.753906c0-4.144531-3.355469-7.5-7.5-7.5s-7.5 3.355469-7.5 7.5v25.753906c0 4.140625 3.355469 7.5 7.5 7.5zm0 0" fill="#bdf9ff"/><g fill="#8c9fb0"><path d="m62.324219 161.964844c-4.140625 0-7.5 3.355468-7.5 7.5v175.132812c0 4.140625 3.359375 7.5 7.5 7.5 4.144531 0 7.5-3.359375 7.5-7.5v-175.132812c0-4.144532-3.355469-7.5-7.5-7.5zm0 0"/><path d="m97.539062 162.480469c-4.144531 0-7.5 3.355469-7.5 7.5v175.128906c0 4.144531 3.355469 7.5 7.5 7.5 4.144532 0 7.5-3.355469 7.5-7.5v-175.128906c0-4.144531-3.355468-7.5-7.5-7.5zm0 0"/><path d="m132.753906 162.996094c-4.144531 0-7.5 3.355468-7.5 7.5v175.128906c0 4.144531 3.355469 7.5 7.5 7.5 4.140625 0 7.5-3.355469 7.5-7.5v-175.128906c0-4.144532-3.359375-7.5-7.5-7.5zm0 0"/><path d="m167.96875 163.507812c-4.144531 0-7.5 3.359376-7.5 7.5v175.132813c0 4.144531 3.355469 7.5 7.5 7.5 4.140625 0 7.5-3.355469 7.5-7.5v-175.132813c0-4.140624-3.359375-7.5-7.5-7.5zm0 0"/><path d="m203.179688 164.023438c-4.144532 0-7.5 3.359374-7.5 7.5v175.132812c0 4.140625 3.355468 7.5 7.5 7.5 4.144531 0 7.5-3.359375 7.5-7.5v-175.132812c0-4.140626-3.359376-7.5-7.5-7.5zm0 0"/><path d="m238.394531 164.539062c-4.144531 0-7.5 3.359376-7.5 7.5v175.132813c0 4.140625 3.355469 7.5 7.5 7.5 4.140625 0 7.5-3.359375 7.5-7.5v-175.132813c0-4.140624-3.359375-7.5-7.5-7.5zm0 0"/><path d="m273.605469 165.054688c-4.140625 0-7.5 3.359374-7.5 7.5v175.132812c0 4.140625 3.359375 7.5 7.5 7.5 4.144531 0 7.5-3.359375 7.5-7.5v-175.132812c0-4.140626-3.355469-7.5-7.5-7.5zm0 0"/><path d="m308.820312 165.570312c-4.144531 0-7.5 3.355469-7.5 7.5v175.128907c0 4.144531 3.355469 7.5 7.5 7.5 4.144532 0 7.5-3.355469 7.5-7.5v-175.128907c0-4.144531-3.355468-7.5-7.5-7.5zm0 0"/><path d="m344.03125 166.085938c-4.140625 0-7.5 3.355468-7.5 7.5v175.128906c0 4.144531 3.359375 7.5 7.5 7.5 4.144531 0 7.5-3.355469 7.5-7.5v-175.128906c0-4.144532-3.355469-7.5-7.5-7.5zm0 0"/><path d="m379.246094 166.601562c-4.140625 0-7.5 3.355469-7.5 7.5v175.128907c0 4.144531 3.359375 7.5 7.5 7.5 4.144531 0 7.5-3.355469 7.5-7.5v-175.128907c0-4.144531-3.355469-7.5-7.5-7.5zm0 0"/><path d="m414.460938 167.113281c-4.144532 0-7.5 3.359375-7.5 7.5v175.132813c0 4.144531 3.355468 7.5 7.5 7.5 4.144531 0 7.5-3.355469 7.5-7.5v-175.132813c0-4.140625-3.355469-7.5-7.5-7.5zm0 0"/><path d="m449.675781 167.628906c-4.144531 0-7.5 3.359375-7.5 7.5v175.132813c0 4.144531 3.355469 7.5 7.5 7.5 4.140625 0 7.5-3.355469 7.5-7.5v-175.132813c0-4.140625-3.359375-7.5-7.5-7.5zm0 0"/></g><path d="m151.214844 46.058594c-2.289063-1.667969-6.363282-3.015625-10.941406-1.816406-2.847657.742187-5.484376 2.347656-7.894532 4.796874-2.414062-2.449218-5.050781-4.054687-7.894531-4.796874-4.578125-1.199219-8.652344.148437-10.941406 1.816406-3.347657 2.433594-4.089844 7.125-1.652344 10.476562 2.125 2.917969 5.960937 3.851563 9.128906 2.433594.71875.523438 2.429688 2.160156 4.539063 6.769531 1.222656 2.667969 3.886718 4.375 6.820312 4.375 2.929688 0 5.597656-1.707031 6.816406-4.375 2.113282-4.609375 3.824219-6.242187 4.539063-6.769531 3.167969 1.421875 7.003906.484375 9.128906-2.433594 2.441407-3.351562 1.699219-8.042968-1.648437-10.476562zm0 0" fill="#4380a0"/><path d="m393.304688 71.8125c-2.285157-1.664062-6.359376-3.015625-10.941407-1.816406-2.84375.746094-5.480469 2.351562-7.890625 4.800781-2.414062-2.449219-5.050781-4.054687-7.894531-4.800781-4.582031-1.199219-8.65625.152344-10.941406 1.816406-3.351563 2.4375-4.089844 7.125-1.652344 10.476562 2.125 2.921876 5.964844 3.855469 9.128906 2.433594.714844.527344 2.425781 2.160156 4.539063 6.769532 1.222656 2.667968 3.886718 4.378906 6.820312 4.378906 2.929688 0 5.59375-1.710938 6.816406-4.378906 2.113282-4.609376 3.824219-6.242188 4.539063-6.769532 3.164063 1.421875 7.003906.488282 9.128906-2.433594 2.4375-3.351562 1.699219-8.042968-1.652343-10.476562zm0 0" fill="#4380a0"/><path d="m306.769531 2.273438c-2.285156-1.664063-6.359375-3.015626-10.941406-1.816407-2.84375.746094-5.480469 2.351563-7.890625 4.800781-2.414062-2.449218-5.050781-4.054687-7.894531-4.800781-4.582031-1.199219-8.65625.152344-10.941407 1.816407-3.351562 2.4375-4.089843 7.128906-1.652343 10.476562 2.125 2.921875 5.964843 3.859375 9.128906 2.4375.714844.523438 2.429687 2.160156 4.539063 6.769531 1.222656 2.664063 3.886718 4.375 6.820312 4.375 2.929688 0 5.59375-1.710937 6.816406-4.375 2.113282-4.609375 3.824219-6.246093 4.539063-6.769531 3.164062 1.421875 7.003906.484375 9.128906-2.4375 2.4375-3.347656 1.699219-8.039062-1.652344-10.476562zm0 0" fill="#4380a0"/></svg>