<svg id="Flat" height="512" viewBox="0 0 512 512" width="512" xmlns="http://www.w3.org/2000/svg"><path d="m56 128h400a32 32 0 0 1 32 32v96a0 0 0 0 1 0 0h-464a0 0 0 0 1 0 0v-96a32 32 0 0 1 32-32z" fill="#dadcde"/><g fill="#a3d4f7"><path d="m125.6 408a8 8 0 0 1 -8-8 21.432 21.432 0 0 1 3.54-12.116 6.618 6.618 0 0 0 0-7.769 22.5 22.5 0 0 1 0-24.232c.968-1.613 1.26-2.1 1.26-3.883a8 8 0 0 1 16 0 21.431 21.431 0 0 1 -3.54 12.115 6.616 6.616 0 0 0 0 7.768 22.5 22.5 0 0 1 0 24.232c-.968 1.614-1.26 2.1-1.26 3.885a8 8 0 0 1 -8 8z"/><path d="m253.6 408a8 8 0 0 1 -8-8 21.432 21.432 0 0 1 3.54-12.116 6.618 6.618 0 0 0 0-7.769 22.5 22.5 0 0 1 0-24.232c.968-1.613 1.26-2.1 1.26-3.883a8 8 0 0 1 16 0 21.431 21.431 0 0 1 -3.54 12.115 6.616 6.616 0 0 0 0 7.768 22.5 22.5 0 0 1 0 24.232c-.968 1.614-1.26 2.1-1.26 3.885a8 8 0 0 1 -8 8z"/><path d="m189.6 408a8 8 0 0 1 -8-8 21.432 21.432 0 0 1 3.54-12.116 6.618 6.618 0 0 0 0-7.769 22.5 22.5 0 0 1 0-24.232c.968-1.613 1.26-2.1 1.26-3.883a8 8 0 0 1 16 0 21.431 21.431 0 0 1 -3.54 12.115 6.616 6.616 0 0 0 0 7.768 22.5 22.5 0 0 1 0 24.232c-.968 1.614-1.26 2.1-1.26 3.885a8 8 0 0 1 -8 8z"/><path d="m317.6 408a8 8 0 0 1 -8-8 21.432 21.432 0 0 1 3.54-12.116 6.618 6.618 0 0 0 0-7.769 22.5 22.5 0 0 1 0-24.232c.968-1.613 1.26-2.1 1.26-3.883a8 8 0 0 1 16 0 21.431 21.431 0 0 1 -3.54 12.115 6.616 6.616 0 0 0 0 7.768 22.5 22.5 0 0 1 0 24.232c-.968 1.614-1.26 2.1-1.26 3.885a8 8 0 0 1 -8 8z"/><path d="m381.6 408a8 8 0 0 1 -8-8 21.432 21.432 0 0 1 3.54-12.116 6.618 6.618 0 0 0 0-7.769 22.5 22.5 0 0 1 0-24.232c.968-1.613 1.26-2.1 1.26-3.883a8 8 0 0 1 16 0 21.431 21.431 0 0 1 -3.54 12.115 6.616 6.616 0 0 0 0 7.768 22.5 22.5 0 0 1 0 24.232c-.968 1.614-1.26 2.1-1.26 3.885a8 8 0 0 1 -8 8z"/></g><path d="m200 160h112v32h-112z" fill="#7e8589"/><path d="m472 320h-432l-16-64h464z" fill="#c3c6c7"/><path d="m72 288h368v32h-368z" fill="#9aa3a8"/></svg>