<svg height="403pt" viewBox="0 -17 403.856 403" width="403pt" xmlns="http://www.w3.org/2000/svg"><path d="m5 5.429688h246.4375v359.574218h-246.4375zm0 0" fill="#4ea3da"/><path d="m5 5.429688h246.4375v16.375h-246.4375zm0 0" fill="#fff"/><path d="m45.554688 36.261719h62.390624v46.792969h-62.390624zm0 0" fill="#ffcc34"/><path d="m148.496094 36.261719h62.386718v46.792969h-62.386718zm0 0" fill="#ffcc34"/><path d="m148.496094 36.261719h62.386718v14.039062h-62.386718zm0 0" fill="#fff"/><path d="m45.554688 36.261719h62.386718v14.039062h-62.386718zm0 0" fill="#fff"/><path d="m45.554688 119.707031h62.390624v46.792969h-62.390624zm0 0" fill="#ffcc34"/><path d="m45.554688 119.707031h62.386718v14.039063h-62.386718zm0 0" fill="#fff"/><path d="m148.496094 119.707031h62.386718v46.792969h-62.386718zm0 0" fill="#ffcc34"/><path d="m148.496094 119.707031h62.386718v14.039063h-62.386718zm0 0" fill="#fff"/><path d="m45.554688 203.152344h62.390624v46.792968h-62.390624zm0 0" fill="#ffcc34"/><path d="m45.554688 203.152344h62.386718v14.039062h-62.386718zm0 0" fill="#fff"/><path d="m148.496094 203.152344h62.386718v46.792968h-62.386718zm0 0" fill="#4ea3da"/><path d="m148.496094 203.152344h62.386718v14.039062h-62.386718zm0 0" fill="#fff"/><path d="m148.496094 203.152344h62.386718v46.792968h-62.386718zm0 0" fill="#ffcc34"/><path d="m95.464844 288.9375h65.507812v76.066406h-65.507812zm0 0" fill="#4ea3da"/><path d="m95.464844 288.9375h65.507812v14.039062h-65.507812zm0 0" fill="#fff"/><g fill="#122436"><path d="m0 .429688v369.574218h256.4375v-369.574218zm100.464844 359.574218v-66.066406h22.753906v66.066406zm32.753906 0v-66.066406h22.753906v66.066406zm27.753906-76.066406h-70.507812v76.066406h-80.464844v-349.574218h236.4375v349.574218h-80.464844v-76.066406zm0 0"/><path d="m40.554688 88.054688h72.390624v-56.792969h-72.390624zm9.996093-46.792969h52.390625v36.792969h-52.390625zm0 0"/><path d="m215.882812 83.054688v-51.792969h-72.386718v56.792969h72.386718zm-62.386718-41.792969h52.390625v36.792969h-52.390625zm0 0"/><path d="m40.554688 171.5h72.390624v-56.792969h-72.390624zm9.996093-46.792969h52.390625v36.789063h-52.390625zm0 0"/><path d="m215.882812 166.5v-51.792969h-72.386718v56.792969h72.386718zm-62.386718-41.792969h52.390625v36.789063h-52.390625zm0 0"/><path d="m40.554688 254.945312h72.390624v-56.792968h-72.390624zm9.996093-46.792968h52.390625v36.792968h-52.390625zm0 0"/><path d="m215.882812 249.945312v-51.792968h-72.386718v56.792968h72.386718zm-62.386718-41.792968h52.390625v36.792968h-52.390625zm0 0"/></g><path d="m386.355469 293.339844h-145c-6.902344 0-12.5-5.597656-12.5-12.5 0-6.90625 5.597656-12.5 12.5-12.5h145c6.902343 0 12.5 5.59375 12.5 12.5 0 6.898437-5.597657 12.5-12.5 12.5zm0 0" fill="#4ea3da"/><path d="m241.355469 280.550781h145c4.6875 0 8.769531 2.578125 10.910156 6.390625 1.011719-1.804687 1.589844-3.886718 1.589844-6.105468 0-6.902344-5.597657-12.5-12.5-12.5h-145c-6.902344 0-12.5 5.597656-12.5 12.5 0 2.21875.578125 4.300781 1.59375 6.105468 2.140625-3.8125 6.222656-6.390625 10.90625-6.390625zm0 0" fill="#fff"/><path d="m393.855469 365.003906h-160l12.058593-71.664062h135.882813zm0 0" fill="#ffcc34"/><path d="m245.914062 309.621094h135.882813l9.320313 55.382812h2.738281l-12.058594-71.664062h-135.882813l-12.058593 71.664062h2.742187zm0 0" fill="#fff"/><path d="m294.410156 248.339844h38.886719v20h-38.886719zm0 0" fill="#4ea3da"/><path d="m294.410156 248.339844h38.886719v10.175781h-38.886719zm0 0" fill="#fff"/><path d="m326.078125 248.339844h-24.445313v-136.410156c0-6.75 5.472657-12.222657 12.222657-12.222657s12.21875 5.472657 12.21875 12.222657v136.410156zm0 0" fill="#ffcc34"/><path d="m313.855469 99.707031c-6.75 0-12.222657 5.472657-12.222657 12.222657v18.320312c0-6.75 5.472657-12.222656 12.222657-12.222656s12.222656 5.472656 12.222656 12.222656v-18.320312c0-6.75-5.472656-12.222657-12.222656-12.222657zm0 0" fill="#fff"/><path d="m387.695312 298.269531c4.289063-.324219 8.179688-2.195312 11.035157-5.058593 3.15625-3.152344 5.128906-7.558594 5.125-12.371094.003906-4.820313-1.96875-9.226563-5.125-12.375-3.152344-3.160156-7.558594-5.128906-12.375-5.125h-48.054688v-20h-7.222656v-131.410156c.003906-4.738282-1.933594-9.078126-5.042969-12.175782-3.101562-3.109375-7.4375-5.050781-12.175781-5.046875-4.742187 0-9.078125 1.9375-12.179687 5.046875-3.109376 3.097656-5.046876 7.4375-5.042969 12.175782v131.40625h-7.222657v20h-48.054687c-4.816406 0-9.222656 1.964843-12.375 5.125-3.160156 3.152343-5.125 7.558593-5.125 12.375 0 4.816406 1.964844 9.222656 5.125 12.375 2.859375 2.859374 6.746094 4.730468 11.035156 5.058593l-12.070312 71.734375h171.824219l-.980469-5.832031zm-88.285156-44.933593h28.886719v10h-28.886719zm7.222656-141.40625c0-2.007813.800782-3.785157 2.113282-5.109376 1.324218-1.3125 3.101562-2.113281 5.109375-2.113281 2.011719 0 3.785156.800781 5.105469 2.113281 1.316406 1.324219 2.113281 3.101563 2.117187 5.109376v131.40625h-14.445313zm-65.277343 176.410156c-2.085938-.003906-3.929688-.832032-5.304688-2.199219-1.363281-1.371094-2.191406-3.214844-2.195312-5.300781.003906-2.089844.832031-3.933594 2.195312-5.304688 1.375-1.363281 3.21875-2.195312 5.304688-2.195312h145c2.085937 0 3.929687.832031 5.300781 2.195312 1.367188 1.375 2.195312 3.21875 2.199219 5.304688-.003907 2.085937-.832031 3.929687-2.199219 5.304687-1.375 1.367188-3.214844 2.195313-5.300781 2.195313zm8.789062 9.996094h127.421875l10.378906 61.667968h-18.253906v-33.332031h-10v33.332031h-15.417968v-33.332031h-10v33.332031h-15.414063v-33.332031h-10v33.332031h-15.417969v-33.332031h-10v33.332031h-15.417968v-33.332031h-10v33.332031h-18.253907zm0 0" fill="#122436"/></svg>