<svg height="512" viewBox="0 0 64 64" width="512" xmlns="http://www.w3.org/2000/svg"><g id="card-payment-wifi"><rect fill="#787680" height="37" rx="2" width="24" x="37" y="16"/><rect fill="#ffb655" height="19" rx="2" width="30" x="3" y="30"/><path d="m3 34h30v3h-30z" fill="#2488ff"/><path d="m28.5 43a1.5 1.5 0 0 1 0 3h-4a1.5 1.5 0 0 1 0-3z" fill="#00ddc2"/><path d="m59 53v6l-3 2-4-2-4 2-4-3-4 3v-8z" fill="#bdfdff"/><path d="m59 7v9h-20v-13h16a4 4 0 0 1 4 4z" fill="#bdfdff"/><rect fill="#2488ff" height="13" rx="1" width="18" x="40" y="19"/><path d="m39 3v6h-5v-2a4 4 0 0 1 4-4z" fill="#00ddc2"/><path d="m15.586 22.586a2 2 0 1 0 2.828 0 2 2 0 0 0 -2.828 0z"/><path d="m21.242 19.757a6 6 0 0 0 -8.484 0l1.414 1.414a4.1 4.1 0 0 1 5.656 0z"/><path d="m17 16a7.948 7.948 0 0 1 5.657 2.343l1.414-1.414a10 10 0 0 0 -14.142 0l1.414 1.414a7.948 7.948 0 0 1 5.657-2.343z"/><path d="m60 15.18v-8.18a5 5 0 0 0 -5-5h-17a5 5 0 0 0 -5 5v2a1 1 0 0 0 1 1h4v5.18a3.01 3.01 0 0 0 -2 2.82v33a3.009 3.009 0 0 0 3 3v7a.977.977 0 0 0 .55.89 1 1 0 0 0 1.05-.09l3.4-2.55 3.4 2.55a1.029 1.029 0 0 0 .6.2.908.908 0 0 0 .45-.11l3.55-1.77 3.55 1.77a.969.969 0 0 0 1-.06l3-2a1 1 0 0 0 .45-.83v-5.18a3.01 3.01 0 0 0 2-2.82v-33a3.01 3.01 0 0 0 -2-2.82zm-20-11.18h15a3.009 3.009 0 0 1 3 3v8h-18zm-5 4v-1a3.009 3.009 0 0 1 3-3v4zm23 50.46-2.07 1.39-3.48-1.74a.975.975 0 0 0 -.9 0l-3.44 1.72-3.51-2.63a.99.99 0 0 0 -1.2 0l-2.4 1.8v-5h17zm2-7.46a1 1 0 0 1 -1 1h-20a1 1 0 0 1 -1-1v-33a1 1 0 0 1 1-1h20a1 1 0 0 1 1 1z"/><path d="m57 18h-16a2.006 2.006 0 0 0 -2 2v11a2.006 2.006 0 0 0 2 2h16a2.006 2.006 0 0 0 2-2v-11a2.006 2.006 0 0 0 -2-2zm0 13h-16v-11h16z"/><circle cx="49" cy="37" r="2"/><circle cx="43" cy="37" r="2"/><circle cx="55" cy="37" r="2"/><circle cx="49" cy="42" r="2"/><circle cx="43" cy="42" r="2"/><circle cx="55" cy="42" r="2"/><circle cx="49" cy="47" r="2"/><circle cx="43" cy="47" r="2"/><circle cx="55" cy="47" r="2"/><path d="m43 22h4v2h-4z"/><path d="m49 22h3v2h-3z"/><path d="m43 27h12v2h-12z"/><path d="m42 6h3v2h-3z"/><path d="m47 6h9v2h-9z"/><path d="m42 10h5v2h-5z"/><path d="m49 10h2v2h-2z"/><path d="m53 10h3v2h-3z"/><path d="m31 29h-26a3.009 3.009 0 0 0 -3 3v15a3.009 3.009 0 0 0 3 3h26a3.009 3.009 0 0 0 3-3v-15a3.009 3.009 0 0 0 -3-3zm1 18a1 1 0 0 1 -1 1h-26a1 1 0 0 1 -1-1v-9h28zm0-11h-28v-1h28zm0-3h-28v-1a1 1 0 0 1 1-1h26a1 1 0 0 1 1 1z"/><path d="m28.5 42h-4a2.5 2.5 0 0 0 0 5h4a2.5 2.5 0 0 0 0-5zm0 3h-4a.5.5 0 0 1 0-1h4a.5.5 0 0 1 0 1z"/></g></svg>