<svg height="496pt" viewBox="0 0 496 496" width="496pt" xmlns="http://www.w3.org/2000/svg"><path d="m472 152h-448c-8.839844 0-16-7.160156-16-16v-96c0-8.839844 7.160156-16 16-16h448c8.839844 0 16 7.160156 16 16v96c0 8.839844-7.160156 16-16 16zm0 0" fill="#ecc19c"/><path d="m104 184v208h-48v-208zm0 0" fill="#cf9e76"/><path d="m472 152v208l-1.199219 1.121094-26.082031-28c-2.640625-2.882813-6.238281-4.640625-10-5.042969l5.28125-.078125v-176zm0 0" fill="#cf9e76"/><path d="m440 184v144l-5.28125.078125c-.558594-.078125-1.117188-.078125-1.679688-.078125h-130.078124c-4.402344 0-8.640626 1.839844-11.679688 5.121094l-40.082031 42.957031c-2.078125 2.242187-4.800781 3.84375-7.757813 4.5625l-47.363281 11.839844c-7.117187 1.757812-12.078125 8.160156-12.078125 15.519531v-224zm0 0" fill="#e6e9ed"/><path d="m440 152v32h-272v-32zm0 0" fill="#dfb28b"/><path d="m120 152v32h-80v-32zm0 0" fill="#dfb28b"/><path d="m302.160156 50.960938c-4 8.878906-6.160156 18.71875-6.160156 29.039062h-64l-24 24h-40l-24-16v-16h40v-32h-40v-16l24-16h40l24 24h80l1.359375 1.199219c-4.558594 5.28125-8.398437 11.28125-11.199219 17.761719zm0 0" fill="#fcd770"/><path d="m488 432v16c0 8.800781-7.199219 16-16 16h-24c0-13.28125-10.71875-24-24-24-5.441406 0-10.480469 1.839844-14.480469 4.878906 7.839844-16.640625 12.558594-34.558594 13.921875-52.878906.398438-3.921875.558594-7.839844.558594-11.761719v-12.238281c0-4.398438-3.601562-8-8-8h-104l-32 32v6.71875c0 15.839844 2.398438 31.601562 7.199219 46.722656-4.160157-3.363281-9.4375-5.441406-15.199219-5.441406-13.28125 0-24 10.71875-24 24h-48c-8.800781 0-16-7.199219-16-16v-40c0-7.359375 4.960938-13.761719 12.078125-15.519531l47.363281-11.839844c2.957032-.71875 5.679688-2.320313 7.757813-4.5625l40.082031-42.957031c3.039062-3.28125 7.277344-5.121094 11.679688-5.121094h129.039062c15.601562 20.800781 24 46 24 72h32zm0 0" fill="#ffeaa7"/><path d="m488 385.839844v14.160156h-32c0-26-8.398438-51.199219-24-72h1.039062c.5625 0 1.121094 0 1.679688.078125 3.761719.402344 7.359375 2.160156 10 5.042969l26.082031 28 12.878907 13.757812c2.800781 2.960938 4.320312 6.882813 4.320312 10.960938zm0 0" fill="#e6e9ed"/><path d="m424 440c13.28125 0 24 10.71875 24 24s-10.71875 24-24 24-24-10.71875-24-24c0-7.839844 3.761719-14.800781 9.519531-19.121094 4-3.039062 9.039063-4.878906 14.480469-4.878906zm0 0" fill="#838f9b"/><path d="m424 368v12.238281c0 3.921875-.160156 7.839844-.558594 11.761719h-143.441406l32-32h104c4.398438 0 8 3.601562 8 8zm0 0" fill="#69d6f4"/><path d="m280 392h143.441406c-1.363281 18.320312-6.082031 36.238281-13.921875 52.878906-5.757812 4.320313-9.519531 11.28125-9.519531 19.121094h-104c0-7.441406-3.359375-14.160156-8.71875-18.480469l-.082031-.078125c-4.800781-15.121094-7.199219-30.882812-7.199219-46.722656zm0 0" fill="#fcd770"/><path d="m320 216h72v80h-72zm0 0" fill="#69d6f4"/><path d="m426.078125 37.519531c-3.277344-4.480469-7.039063-8.558593-11.277344-12.160156-12.5625-10.800781-28.960937-17.359375-46.800781-17.359375-2.558594 0-5.121094.160156-7.679688.398438-18.71875 2-35.359374 11.203124-46.960937 24.800781-4.558594 5.28125-8.398437 11.28125-11.199219 17.761719-4 8.878906-6.160156 18.71875-6.160156 29.039062 0 15.839844 5.199219 30.640625 13.921875 42.480469 13.039063 17.917969 34.238281 29.519531 58.078125 29.519531 2.558594 0 5.121094-.160156 7.679688-.398438 26.082031-2.800781 48-19.441406 58.160156-42.5625 2.960937-6.558593 4.878906-13.679687 5.679687-21.117187.320313-2.640625.480469-5.28125.480469-7.921875 0-15.839844-5.199219-30.640625-13.921875-42.480469zm0 0" fill="#838f9b"/><path d="m392 80c0 1.679688-.160156 3.28125-.480469 4.878906-1.757812 8.402344-7.917969 15.28125-16 17.839844-2.320312.882812-4.878906 1.28125-7.519531 1.28125-6.078125 0-11.601562-2.320312-15.839844-6.078125-5.039062-4.320313-8.160156-10.722656-8.160156-17.921875 0-1.679688.160156-3.28125.480469-4.878906 1.757812-8.402344 7.917969-15.28125 16-17.839844 2.320312-.882812 4.878906-1.28125 7.519531-1.28125 6.078125 0 11.601562 2.320312 15.839844 6.078125 5.039062 4.320313 8.160156 10.722656 8.160156 17.921875zm0 0" fill="#ccd1d9"/><path d="m248 216h72v80h-72zm0 0" fill="#69d6f4"/><g fill="#838f9b"><path d="m287.28125 445.519531c5.359375 4.320313 8.71875 11.039063 8.71875 18.480469 0 13.28125-10.71875 24-24 24s-24-10.71875-24-24 10.71875-24 24-24c5.761719 0 11.039062 2.078125 15.199219 5.441406zm0 0"/><path d="m152 448v32c0 4.398438-3.601562 8-8 8h-32l16-24-16-24h32c4.398438 0 8 3.601562 8 8zm0 0"/><path d="m152 400v32c0 4.398438-3.601562 8-8 8h-32l16-24-16-24h32c4.398438 0 8 3.601562 8 8zm0 0"/><path d="m112 392 16 24-16 24h-40l16-24-16-24zm0 0"/><path d="m112 440 16 24-16 24h-40l16-24-16-24zm0 0"/><path d="m72 392 16 24-16 24h-40l16-24-16-24zm0 0"/><path d="m72 440 16 24-16 24h-40l16-24-16-24zm0 0"/><path d="m32 392 16 24-16 24h-16c-4.398438 0-8-3.601562-8-8v-32c0-4.398438 3.601562-8 8-8zm0 0"/><path d="m32 440 16 24-16 24h-16c-4.398438 0-8-3.601562-8-8v-32c0-4.398438 3.601562-8 8-8zm0 0"/></g><path d="m304 416h32v16h-32zm0 0"/><path d="m496 144v-112c0-8.824219-7.175781-16-16-16h-64v.144531c-13.800781-10.410156-30.640625-16.144531-48-16.144531-2.816406 0-5.617188.167969-8.527344.449219-18.535156 1.976562-35.519531 10.328125-48.441406 23.550781h-75.71875l-24-24h-45.738281l-24 16h-125.574219c-8.824219 0-16 7.175781-16 16v112c0 8.824219 7.175781 16 16 16h16v32h16v192h-32c-8.824219 0-16 7.175781-16 16v32c0 2.929688.847656 5.640625 2.222656 8-1.375 2.359375-2.222656 5.070312-2.222656 8v32c0 8.824219 7.175781 16 16 16h128c8.824219 0 16-7.175781 16-16v-32c0-2.929688-.847656-5.640625-2.222656-8 1.375-2.359375 2.222656-5.070312 2.222656-8v-32c0-8.824219-7.175781-16-16-16h-32v-192h16v-32h32v32h16v256c0 13.230469 10.769531 24 24 24h41.136719c3.574219 13.769531 15.992187 24 30.863281 24s27.289062-10.230469 30.863281-24h90.273438c3.574219 13.769531 15.992187 24 30.863281 24s27.289062-10.230469 30.863281-24h17.136719c13.230469 0 24-10.769531 24-24v-62.160156c0-6.167969-2.3125-12.015625-6.480469-16.433594l-9.519531-10.199219v-199.207031c8.824219 0 16-7.175781 16-16zm-80.144531 0c10.847656-8.113281 19.671875-18.929688 25.28125-31.679688 2.335937-5.191406 4.054687-10.679687 5.191406-16.320312h33.671875v48zm62.007812 236.375c1.375 1.457031 2.136719 3.402344 2.136719 5.464844v6.160156h-16.238281c-.722657-11.761719-3.089844-23.207031-6.90625-34.152344zm-152.261719-322.992188 10.429688 21.128907.121094-.054688c-.023438.511719-.152344 1.007813-.152344 1.542969 0 3.488281.726562 6.832031 1.800781 10.046875l-20.226562-1.34375-8.132813 16.578125c-3.433594-7.96875-5.441406-16.5625-5.441406-25.28125 0-7.441406 1.3125-14.601562 3.785156-21.441406zm1.613282 47.992188 23.457031 1.570312.015625-.210937c3.335938 2.175781 7 3.722656 10.855469 4.53125l-11.152344 16.726563 10.210937 15.335937c-15.9375-1.96875-30.746093-9.695313-41.21875-21.984375zm36.105468-40.613281c1.320313-.503907 2.894532-.761719 4.679688-.761719 3.832031 0 7.574219 1.449219 10.535156 4.070312l.097656.082032c3.464844 2.96875 5.367188 7.175781 5.367188 11.847656 0 1.144531-.105469 2.222656-.304688 3.230469-1.175781 5.617187-5.238281 10.167969-11.015624 12.007812-4.167969 1.5625-10.839844.570313-15.3125-3.390625-3.464844-2.96875-5.367188-7.175781-5.367188-11.847656 0-1.144531.105469-2.222656.304688-3.230469 1.183593-5.617187 5.238281-10.167969 11.015624-12.007812zm63.230469-10.042969c3.441407 7.96875 5.449219 16.5625 5.449219 25.28125 0 2.320312-.144531 4.640625-.433594 7.0625-.542968 5.007812-1.824218 9.769531-3.488281 14.394531l-17.679687 1.167969-10.429688-21.128906-.121094.054687c.023438-.519531.152344-1.015625.152344-1.550781 0-3.488281-.726562-6.832031-1.800781-10.046875l20.226562 1.34375zm-34.65625 46.554688 8.914063 18.03125 18.480468-1.265626c-9.609374 12.945313-23.824218 21.882813-39.824218 24.800782l-9.855469-14.832032 13.046875-19.566406-.0625-.042968c3.527344-1.789063 6.6875-4.199219 9.300781-7.125zm88.105469-21.273438h-32c0-16.886719-5.496094-33.648438-15.472656-47.199219-.199219-.28125-.449219-.519531-.65625-.800781h48.128906zm-63.367188-41.382812-7.847656 16.007812-23.457031-1.570312-.015625.21875c-3.335938-2.175782-7-3.722657-10.855469-4.539063l11.152344-16.726563-10.34375-15.542968c12.621094 1.445312 24.605469 6.605468 34.351563 14.992187 2.527343 2.144531 4.832031 4.589844 7.015624 7.160157zm-60.152343-21.546876 9.910156 14.921876-13.046875 19.566406.0625.042968c-3.527344 1.789063-6.6875 4.191407-9.300781 7.125l-8.914063-18.03125-18.390625 1.265626c.886719-1.183594 1.664063-2.425782 2.648438-3.5625 9.613281-11.277344 22.671875-18.710938 37.03125-21.328126zm-204.480469 11.210938 18.425781-12.28125h34.261719l24 24h70.234375c-1.457031 2.519531-2.921875 5.046875-4.066406 7.679688-3.464844 7.703124-5.617188 15.863281-6.449219 24.320312h-59.726562l-24 24h-34.265626l-18.414062-12.28125v-3.71875h40v-48h-40zm-136 67.71875h32v-16h-32v-48h120v16h40v16h-40v16h-72v16h77.574219l24 16h45.738281l24-24h53.144531c1.445313 14.121094 6.613281 27.808594 14.992188 39.175781 4.742187 6.519531 10.488281 12.097657 16.824219 16.824219h-304.273438zm91.71875 304 10.664062 16-10.664062 16h-20.765625l10.664063-16-10.664063-16zm10.664062 64-10.664062 16h-20.765625l10.664063-16-10.664063-16h20.765625zm-50.664062-16 10.664062 16-10.664062 16h-20.765625l10.664063-16-10.664063-16zm0-48 10.664062 16-10.664062 16h-20.765625l10.664063-16-10.664063-16zm-51.71875 0h11.71875l10.664062 16-10.664062 16h-11.71875zm0 48h11.71875l10.664062 16-10.664062 16h-11.71875zm128 32h-17.046875l10.664063-16-10.664063-16h17.046875zm0-48h-17.046875l10.664063-16-10.664063-16h17.046875zm-48-48h-32v-192h32zm16-208h-64v-16h64zm320-16v16h-256v-16zm0 32v128h-129.039062c-6.617188 0-13.015626 2.800781-17.527344 7.65625l-40.089844 42.976562c-1.015625 1.09375-2.367188 1.886719-3.839844 2.246094l-47.351562 11.832032c-.746094.183593-1.433594.480468-2.152344.730468v-193.441406zm-160 288c-8.824219 0-16-7.175781-16-16s7.175781-16 16-16c4.664062 0 8.113281 1.992188 10.175781 3.664062l2.023438-2.511718.191406-.054688-2.144531 2.65625c3.65625 2.941406 5.753906 7.40625 5.753906 12.246094 0 8.824219-7.175781 16-16 16zm144-99.761719c0 1.304688-.046875 2.523438-.089844 3.761719h-116.597656l16-16h100.6875zm-22.902344 75.761719h-90.1875c-1.429687-5.625-4.429687-10.632812-8.613281-14.6875-4.058594-13.328125-6.128906-27.214844-6.25-41.3125h126.386719c-1.890625 13.953125-5.753906 27.496094-11.679688 40.367188-4.675781 4.191406-8.082031 9.585937-9.65625 15.632812zm30.902344 24c-8.824219 0-16-7.175781-16-16 0-5 2.359375-9.753906 6.359375-12.753906 2.769531-2.085938 6.183594-3.246094 9.640625-3.246094 8.824219 0 16 7.175781 16 16s-7.175781 16-16 16zm48-24h-17.136719c-3.574219-13.769531-15.992187-24-30.863281-24-.257812 0-.511719.054688-.769531.0625 4.371093-12.726562 7.175781-25.871094 8.167969-39.230469.410156-3.945312.601562-8.046875.601562-12.59375v-12.238281c0-8.824219-7.175781-16-16-16h-107.3125l-36.6875 36.6875v10.03125c0 11.371094 1.265625 22.601562 3.585938 33.59375-1.195313-.136719-2.386719-.3125-3.585938-.3125-14.871094 0-27.289062 10.230469-30.863281 24h-41.136719c-4.414062 0-8-3.585938-8-8v-24.046875c17.121094-.136719 34.113281-2.914063 50.511719-8.351563l-5.03125-15.1875c-14.785157 4.90625-30.082031 7.410157-45.472657 7.546876.023438-3.664063 2.480469-6.832032 6.007813-7.714844l47.3125-11.820313c4.496094-1.097656 8.550781-3.480469 11.726563-6.875l40.089843-42.976562c1.511719-1.644531 3.632813-2.574219 5.816407-2.574219h124.847656c13.175781 18.855469 20.191406 40.871094 20.191406 64v8h32v16h-24v16h24v8c0 4.414062-3.585938 8-8 8zm-8-113.945312-13.390625-14.351563c-.800781-.871094-1.699219-1.632813-2.609375-2.367187v-165.335938h16zm0 0"/><path d="m400 208h-160v96h160zm-144 16h56v64h-56zm128 64h-56v-64h56zm0 0"/></svg>