<svg id="Capa_1" enable-background="new 0 0 512 512" height="512" viewBox="0 0 512 512" width="512" xmlns="http://www.w3.org/2000/svg"><path d="m361 330.001-21.25 30h-38.75v-150h60z" fill="#cdf"/><path d="m383.808 187.294c-5.12-15.758-22.044-24.382-37.802-19.261l-34.83-20.228-55.176 17.928-62.518 20.314-25.8 39.926-21.4 6.953c-15.758 5.12-24.38 22.044-19.261 37.802 3.609 11.109 13.178 18.358 23.978 20.059v39.214l26.874 30h33.127v-85.016l45-14.621 108.547-35.268c15.758-5.12 24.38-22.044 19.261-37.802z" fill="#e6ffff"/><path d="m383.808 187.294c-5.12-15.758-22.044-24.382-37.802-19.261l-34.83-20.228-55.176 17.928v94.631l108.547-35.268c15.758-5.12 24.38-22.044 19.261-37.802z" fill="#d9f2ff"/><path d="m386.666 123.276c-5.12-15.758-22.044-24.38-37.802-19.261l-44.341-17.137-48.523 15.766-63.226 20.544-22.233 38.769-21.4 6.953c-15.758 5.12-24.38 22.044-19.261 37.802s22.044 24.38 37.802 19.261l88.318-28.696 90.005-29.244 21.4-6.954c15.758-5.12 24.381-22.045 19.261-37.803z" fill="#d9f2ff"/><path d="m367.405 161.078c15.758-5.12 24.38-22.044 19.261-37.802s-22.044-24.38-37.802-19.261l-44.341-17.137-48.523 15.766v94.633l90.005-29.244z" fill="#cdf"/><path d="m313.92 20.739c-5.121-15.76-22.044-24.382-37.804-19.263l-20.116 6.537-94.01 30.546c-15.758 5.12-24.38 22.044-19.261 37.802s22.044 24.382 37.802 19.261l33.642 20.614 41.827-13.59 12.858-4.178 25.8-39.926c15.757-5.122 24.382-22.045 19.262-37.803z" fill="#d9f2ff"/><path d="m294.657 58.541c15.758-5.121 24.382-22.044 19.263-37.802-5.121-15.76-22.044-24.382-37.804-19.263l-20.116 6.537v94.633l12.858-4.178z" fill="#cdf"/><path d="m151 330.001h210v75h-210z" fill="#596c76"/><path d="m256 330.001h105v75h-105z" fill="#465a61"/><path d="m361 405.001v11.4c0 17.1-9.6 32.699-24.901 40.199l-26.699 13.5c-5.101 2.701-8.401 7.8-8.401 13.5v13.4c0 8.399-6.599 15-15 15h-60c-8.401 0-15-6.601-15-15v-13.4c0-5.7-3.3-10.8-8.401-13.5l-26.699-13.5c-15.299-7.5-24.899-23.099-24.899-40.199v-11.4z" fill="#596c76"/><path d="m361 405.001v11.4c0 17.1-9.6 32.699-24.901 40.199l-26.699 13.5c-5.101 2.701-8.401 7.8-8.401 13.5v13.4c0 8.399-6.599 15-15 15h-30v-107h105.001z" fill="#465a61"/><path d="m391 405.001c0 8.399-6.599 15-15 15h-240c-8.401 0-15-6.601-15-15 0-8.401 6.599-15 15-15h240c8.401 0 15 6.599 15 15z" fill="#ffda2d"/><path d="m391 405.001c0 8.399-6.599 15-15 15h-120v-30h120c8.401 0 15 6.599 15 15z" fill="#fdbf00"/><path d="m389.524 59.261c-5.121-15.758-22.044-24.383-37.802-19.261l-57.065 18.541-38.657 12.561-75.469 24.52-28.531 9.27c-15.758 5.121-24.382 22.044-19.261 37.802 5.12 15.758 22.044 24.382 37.802 19.263l85.459-27.768 92.864-30.174 21.398-6.953c15.759-5.119 24.382-22.043 19.262-37.801z" fill="#e6ffff"/><path d="m370.261 97.063c15.76-5.12 24.382-22.044 19.263-37.802-5.121-15.758-22.044-24.383-37.802-19.261l-57.065 18.541-38.657 12.561v63.087l92.864-30.174z" fill="#d9f2ff"/></svg>