<svg id="icons" enable-background="new 0 0 64 64" height="512" viewBox="0 0 64 64" width="512" xmlns="http://www.w3.org/2000/svg"><path d="m5 33.99v4c0 1.1-.9 2-2 2-1.11 0-2-.9-2-2v-12.02c0-1.1.89-2 2-2 1.1 0 2 .9 2 2v4.021z" fill="#5d9cec"/><path d="m44 1c5.52 0 10 4.48 10 10s-4.48 10-10 10c-5.521 0-10-4.48-10-10s4.479-10 10-10z" fill="#a0d468"/><path d="m50 31.01h3v2.99h-3z" fill="#e6e9ed"/><path d="m53 30.01v1h-3-11-3v-1c0-1.66 1.34-3 3-3h11c1.66 0 3 1.34 3 3z" fill="#4a89dc"/><path d="m36 31.01h3v2.99h-3z" fill="#e6e9ed"/><path d="m32 40.01v4h-6-1v-4h1z" fill="#5d9cec"/><path d="m36 45.01h-4v-1-4-1h4v1 4z" fill="#e6e9ed"/><path d="m63 40.01v4h-1-5v-4h5z" fill="#5d9cec"/><path d="m57 44.01v1h-4v-1-4-1h4v1z" fill="#e6e9ed"/><path d="m53 40.01v4h-9-8v-4z" fill="#5d9cec"/><g fill="#4a89dc"><path d="m62 36v4.01h-5v-1h-4v1h-17v-1h-4v1h-6v-4.01c0-1.11.89-2 2-2h8 3 11 3 7c1.11 0 2 .89 2 2z"/><path d="m62 44.01v16.99c0 1.11-.89 2.01-2 2.01h-16v-3c3.59 0 6.5-2.91 6.5-6.5s-2.91-6.5-6.5-6.5v-3h9v1h4v-1z"/><path d="m44 60.01v3h-16c-1.11 0-2-.899-2-2.01v-16.99h6v1h4v-1h8v3c-3.59 0-6.5 2.91-6.5 6.5s2.91 6.5 6.5 6.5z"/></g><path d="m46 54.01c0 1.101-.9 2-2 2-1.101 0-2-.899-2-2 0-1.109 2-3 2-3s2 1.89 2 3z" fill="#5d9cec"/><path d="m44 47.01c3.59 0 6.5 2.91 6.5 6.5s-2.91 6.5-6.5 6.5-6.5-2.91-6.5-6.5 2.91-6.5 6.5-6.5zm0 9c1.1 0 2-.899 2-2 0-1.109-2-3-2-3s-2 1.891-2 3c0 1.1.899 2 2 2z" fill="#e6e9ed"/><path d="m5 29.99h3v4h-3z" fill="#ccd1d9"/><path d="m20 37.97v16.02h-.01-11.99v-16.02h11.99z" fill="#ccd1d9"/><path d="m20 26.01v11.96h-.01-11.99v-3.98-4-3.98h11.99z" fill="#e6e9ed"/><path d="m20 10v16.01h-.01-11.99v-16.01h11.99z" fill="#ccd1d9"/><path d="m21.99 5.99v2.01c0 1.1-.891 1.99-1.99 2h-.01-11.99c-1.101 0-2-.9-2-2v-2.01c0-1.101.899-2 2-2h11.99.01c1.1.01 1.99.9 1.99 2z" fill="#e6e9ed"/><path d="m20 59.99v3 .02h-12v-.02-3h11.99z" fill="#ccd1d9"/><path d="m21.99 55.99v2c0 1.1-.891 1.99-1.99 2h-.01-11.99c-1.101 0-2-.9-2-2v-2c0-1.101.899-2 2-2h11.99.01c1.1.01 1.99.9 1.99 2z" fill="#e6e9ed"/><path d="m8 .99h12v3h-.01-11.99z" fill="#ccd1d9"/><path d="m19.992 60.994h-11.994c-1.654 0-3-1.346-3-3v-2.004c0-1.654 1.346-3 3-3h11.994c1.654 0 3 1.346 3 3v2.004c0 1.654-1.346 3-3 3zm-11.994-6.004c-.552 0-1 .448-1 1v2.004c0 .552.448 1 1 1h11.994c.552 0 1-.448 1-1v-2.004c0-.552-.448-1-1-1z"/><path d="m19.992 11h-11.994c-1.654 0-3-1.346-3-3v-2.006c0-1.654 1.346-3 3-3h11.994c1.654 0 3 1.346 3 3v2.006c0 1.654-1.346 3-3 3zm-11.994-6.006c-.552 0-1 .448-1 1v2.006c0 .552.448 1 1 1h11.994c.552 0 1-.448 1-1v-2.006c0-.552-.448-1-1-1z"/><path d="m7.998 54.99c-.553 0-1-.447-1-1v-43.99c0-.553.447-1 1-1s1 .447 1 1v43.99c0 .553-.447 1-1 1z"/><path d="m20.002 54.99c-.553 0-1-.447-1-1v-43.99c0-.553.447-1 1-1s1 .447 1 1v43.99c0 .553-.447 1-1 1z"/><path d="m19.992 38.975h-11.994c-.553 0-1-.447-1-1s.447-1 1-1h11.994c.553 0 1 .447 1 1s-.447 1-1 1z"/><path d="m19.992 27.008h-11.994c-.553 0-1-.447-1-1s.447-1 1-1h11.994c.553 0 1 .447 1 1s-.447 1-1 1z"/><path d="m4.998 26.973c-.553 0-1-.447-1-1 0-.552-.448-1-1-1s-1 .448-1 1c0 .553-.447 1-1 1s-1-.447-1-1c0-1.654 1.346-3 3-3s3 1.346 3 3c0 .552-.447 1-1 1z"/><path d="m2.998 40.992c-1.654 0-3-1.346-3-3 0-.553.447-1 1-1s1 .447 1 1c0 .552.448 1 1 1s1-.448 1-1c0-.553.447-1 1-1s1 .447 1 1c0 1.654-1.346 3-3 3z"/><path d="m4.998 38.992c-.553 0-1-.447-1-1v-12.02c0-.553.447-1 1-1s1 .447 1 1v12.02c0 .553-.447 1-1 1z"/><path d="m.998 38.992c-.553 0-1-.447-1-1v-12.02c0-.553.447-1 1-1s1 .447 1 1v12.02c0 .553-.447 1-1 1z"/><path d="m7.998 30.99h-3c-.553 0-1-.447-1-1s.447-1 1-1h3c.553 0 1 .447 1 1s-.447 1-1 1z"/><path d="m7.998 34.992h-3c-.553 0-1-.447-1-1s.447-1 1-1h3c.553 0 1 .447 1 1s-.447 1-1 1z"/><path d="m7.998 4.994c-.553 0-1-.447-1-1v-3.002c0-.553.447-1 1-1s1 .447 1 1v3.002c0 .553-.447 1-1 1z"/><path d="m19.998 4.994c-.553 0-1-.447-1-1v-3.002c0-.553.447-1 1-1s1 .447 1 1v3.002c0 .553-.447 1-1 1z"/><path d="m7.998 63.992c-.553 0-1-.447-1-1v-2.998c0-.553.447-1 1-1s1 .447 1 1v2.998c0 .553-.447 1-1 1z"/><path d="m19.998 63.992c-.553 0-1-.447-1-1v-2.998c0-.553.447-1 1-1s1 .447 1 1v2.998c0 .553-.447 1-1 1z"/><path d="m60.002 64.008h-32.004c-.553 0-1-.447-1-1s.447-1 1-1h32.004c.553 0 1 .447 1 1s-.447 1-1 1z"/><path d="m60.002 35h-32.004c-.553 0-1-.447-1-1s.447-1 1-1h32.004c.553 0 1 .447 1 1s-.447 1-1 1z"/><path d="m32.002 45.008h-7c-.553 0-1-.447-1-1v-4c0-.553.447-1 1-1h7c.553 0 1 .447 1 1s-.447 1-1 1h-6v2h6c.553 0 1 .447 1 1s-.447 1-1 1z"/><path d="m53.002 45.008h-17.002c-.553 0-1-.447-1-1s.447-1 1-1h17.002c.553 0 1 .447 1 1s-.447 1-1 1z"/><path d="m63.002 45.008h-6c-.553 0-1-.447-1-1s.447-1 1-1h5v-2h-5c-.553 0-1-.447-1-1s.447-1 1-1h6c.553 0 1 .447 1 1v4c0 .553-.447 1-1 1z"/><path d="m53.002 41.008h-17c-.553 0-1-.447-1-1s.447-1 1-1h17c.553 0 1 .447 1 1s-.447 1-1 1z"/><path d="m25.998 41.008c-.553 0-1-.447-1-1v-4.006c0-.553.447-1 1-1s1 .447 1 1v4.006c0 .553-.447 1-1 1z"/><path d="m62.002 41.008c-.553 0-1-.447-1-1v-4.006c0-.553.447-1 1-1s1 .447 1 1v4.006c0 .553-.447 1-1 1z"/><path d="m25.998 62.006c-.553 0-1-.447-1-1v-16.998c0-.553.447-1 1-1s1 .447 1 1v16.998c0 .553-.447 1-1 1z"/><path d="m62.002 62.006c-.553 0-1-.447-1-1v-16.998c0-.553.447-1 1-1s1 .447 1 1v16.998c0 .553-.447 1-1 1z"/><path d="m36.002 46.008h-4c-.553 0-1-.447-1-1v-6c0-.553.447-1 1-1h4c.553 0 1 .447 1 1v6c0 .553-.447 1-1 1zm-3-2h2v-4h-2z"/><path d="m57.002 46.008h-4c-.553 0-1-.447-1-1v-6c0-.553.447-1 1-1h4c.553 0 1 .447 1 1v6c0 .553-.447 1-1 1zm-3-2h2v-4h-2z"/><path d="m25.998 37.002c-.553 0-1-.447-1-1 0-1.655 1.347-3.002 3.002-3.002.553 0 1 .447 1 1s-.447 1-1 1-1.002.449-1.002 1.002-.447 1-1 1z"/><path d="m62.002 37.002c-.553 0-1-.447-1-1s-.449-1.002-1.002-1.002-1-.447-1-1 .447-1 1-1c1.655 0 3.002 1.347 3.002 3.002 0 .553-.447 1-1 1z"/><path d="m60 64.008c-.553 0-1-.447-1-1s.447-1 1-1 1.002-.449 1.002-1.002.447-1 1-1 1 .447 1 1c0 1.655-1.347 3.002-3.002 3.002z"/><path d="m28 64.008c-1.655 0-3.002-1.347-3.002-3.002 0-.553.447-1 1-1s1 .447 1 1 .449 1.002 1.002 1.002 1 .447 1 1-.447 1-1 1z"/><path d="m44.002 61.008c-4.136 0-7.5-3.364-7.5-7.5s3.364-7.5 7.5-7.5 7.5 3.364 7.5 7.5-3.364 7.5-7.5 7.5zm0-13c-3.032 0-5.5 2.468-5.5 5.5s2.468 5.5 5.5 5.5 5.5-2.468 5.5-5.5-2.468-5.5-5.5-5.5z"/><path d="m44.002 57.01c-1.654 0-3-1.346-3-3 0-1.423 1.77-3.213 2.312-3.728.387-.365.99-.365 1.377 0 .542.515 2.312 2.305 2.312 3.728-.001 1.654-1.347 3-3.001 3zm0-4.552c-.558.645-.987 1.293-1 1.554 0 .55.448.998 1 .998s1-.448 1-1c-.013-.26-.442-.907-1-1.552z"/><path d="m36.006 35c-.553 0-1-.447-1-1v-3.992c0-.553.447-1 1-1s1 .447 1 1v3.992c0 .553-.447 1-1 1z"/><path d="m39.006 35c-.553 0-1-.447-1-1v-2.992c0-.553.447-1 1-1s1 .447 1 1v2.992c0 .553-.447 1-1 1z"/><path d="m49.998 35c-.553 0-1-.447-1-1v-2.992c0-.553.447-1 1-1s1 .447 1 1v2.992c0 .553-.447 1-1 1z"/><path d="m52.998 35c-.553 0-1-.447-1-1v-3.992c0-.553.447-1 1-1s1 .447 1 1v3.992c0 .553-.447 1-1 1z"/><path d="m52.998 32.008h-16.992c-.553 0-1-.447-1-1s.447-1 1-1h16.992c.553 0 1 .447 1 1s-.447 1-1 1z"/><path d="m36.006 31.008c-.553 0-1-.447-1-1 0-2.204 1.793-3.998 3.996-3.998.553 0 1 .447 1 1s-.447 1-1 1c-1.101 0-1.996.896-1.996 1.998 0 .553-.447 1-1 1z"/><path d="m52.998 31.008c-.553 0-1-.447-1-1 0-1.102-.896-1.998-1.996-1.998-.553 0-1-.447-1-1s.447-1 1-1c2.203 0 3.996 1.794 3.996 3.998 0 .553-.447 1-1 1z"/><path d="m50.002 28.01h-11c-.553 0-1-.447-1-1s.447-1 1-1h11c.553 0 1 .447 1 1s-.447 1-1 1z"/><path d="m44.002 22.001c-6.065 0-11-4.935-11-11s4.935-11 11-11 11 4.935 11 11-4.935 11-11 11zm0-20c-4.963 0-9 4.037-9 9s4.037 9 9 9 9-4.037 9-9-4.037-9-9-9z"/><path d="m42.01 16.009c-.256 0-.512-.098-.707-.293l-3.006-3.006c-.391-.391-.391-1.023 0-1.414s1.023-.391 1.414 0l3.006 3.006c.391.391.391 1.023 0 1.414-.196.195-.451.293-.707.293z"/><path d="m42.01 16.009c-.256 0-.512-.098-.707-.293-.391-.391-.391-1.023 0-1.414l6.992-6.992c.391-.391 1.023-.391 1.414 0s.391 1.023 0 1.414l-6.992 6.992c-.196.195-.451.293-.707.293z"/></svg>